<svg width="1006" height="863" viewBox="0 0 1006 863" fill="none" xmlns="http://www.w3.org/2000/svg">
<g opacity="0.3">
<path d="M391.126 803.89C377.716 807.483 364.692 810.642 352.122 813.344C283.109 828.19 229.971 829.113 194.184 816.085C157.57 802.762 140.162 774.964 142.436 733.46C149.348 607.463 167.348 525.695 179.259 471.593C184.619 447.241 188.854 428.005 190.061 413.454C192.066 389.24 218.278 350.783 258.463 313.086C301.71 272.522 351.388 241.663 394.766 228.425C454.59 210.167 515.538 175.217 556.129 149.112C603.415 118.702 651.065 82.1445 683.589 51.319C704.584 31.4186 729.619 24.2255 755.978 30.5153C801.618 41.4094 845.328 91.2315 870.049 160.534C881.763 193.381 893.879 227.351 903.489 260.687C914.117 297.545 920.436 329.647 922.812 358.823C925.644 393.661 923.083 425.359 914.985 455.722C905.941 489.621 890.244 521.129 866.994 552.049C827.29 604.857 699.862 684.336 557.121 745.328C498.727 770.277 442.128 790.218 391.124 803.885L391.126 803.89ZM719.431 32.2538C707.032 35.5761 695.315 42.3402 684.654 52.4462C652.062 83.3378 604.328 119.96 556.97 150.416C516.295 176.57 455.214 211.599 395.217 229.909C352.061 243.082 302.599 273.808 259.519 314.221C219.602 351.664 193.576 389.741 191.602 413.591C190.387 428.25 186.142 447.527 180.769 471.935C168.868 525.992 150.889 607.679 143.981 733.552C141.748 774.294 158.815 801.575 194.715 814.642C230.223 827.564 283.073 826.622 351.8 811.842C412.072 798.88 482.861 775.392 556.514 743.919C699.036 683.023 826.202 603.747 865.762 551.132C888.889 520.373 904.5 489.042 913.494 455.332C921.547 425.142 924.095 393.617 921.274 358.958C915.987 293.931 891.892 226.386 868.595 161.062C844.052 92.2449 800.764 42.8003 755.62 32.029C743.156 29.0524 730.995 29.1606 719.432 32.2588L719.431 32.2538Z" fill="white"/>
<path d="M392.698 776.549C382.091 779.391 371.76 781.93 361.739 784.151C298.541 798.159 249.893 799.355 217.137 787.706C184.026 775.928 168.131 751.131 169.893 714.002C174.387 601.819 189.642 524.081 199.733 472.647C204.471 448.499 208.211 429.427 209.353 414.713C211.206 390.928 235.225 354.221 272.037 318.91C311.455 281.098 357.564 251.969 398.539 238.985C453.651 221.873 509.881 190.042 547.344 166.358C591.358 138.531 634.26 106.417 665.052 78.2412C684.487 60.4645 707.563 54.2439 731.793 60.2515C773.85 70.677 814.046 116.521 836.689 179.903C858.11 239.679 880.264 301.493 885.139 362.414C887.709 394.502 885.339 423.724 877.894 451.747C869.593 483.006 855.21 512.073 833.942 540.607C797.582 589.714 680.652 663.732 549.596 720.607C494.296 744.603 440.712 763.689 392.694 776.555L392.698 776.549ZM697.102 61.7111C686.057 64.6706 675.601 70.564 666.037 79.3099C635.185 107.539 592.209 139.715 548.125 167.582C510.584 191.314 454.238 223.208 398.98 240.37C358.21 253.288 312.309 282.293 273.048 319.955C236.482 355.03 212.634 391.382 210.807 414.824C209.662 429.625 205.91 448.732 201.167 472.923C191.082 524.319 175.844 601.983 171.355 714.063C169.628 750.485 185.196 774.799 217.634 786.336C250.125 797.891 298.506 796.676 361.433 782.73C416.731 770.477 481.6 748.527 549.028 719.266C679.875 662.485 796.559 588.661 832.785 539.734C853.95 511.35 868.248 482.444 876.502 451.368C883.904 423.506 886.26 394.448 883.701 362.522C878.839 301.789 856.721 240.068 835.329 180.38C812.844 117.451 773.042 71.9597 731.447 61.6501C719.624 58.72 708.071 58.7667 697.101 61.7062L697.102 61.7111Z" fill="white"/>
<path d="M394.374 749.235C386.52 751.339 378.843 753.252 371.35 754.972C313.967 768.147 269.804 769.613 240.089 759.339C210.481 749.107 196.103 727.304 197.358 694.538C199.47 595.444 211.58 524.504 220.423 472.711C224.436 449.205 227.602 430.638 228.657 415.958C230.385 392.244 251.681 358.137 285.624 324.72C321.23 289.663 363.768 262.263 402.327 249.537C493.671 220.595 598.406 147.335 646.524 105.157C664.4 89.5033 685.527 84.2527 707.632 89.9767C746.102 99.9349 782.774 141.808 803.341 199.255C821.948 250.878 843.031 309.391 847.479 365.991C849.782 395.331 847.607 422.075 840.821 447.758C833.259 476.377 820.2 503 800.901 529.151C784.333 551.933 750.142 580.246 702.032 611.021C655.821 640.583 599.009 670.72 542.075 695.885C489.906 718.941 439.355 737.182 394.379 749.234L394.374 749.235ZM674.737 91.1522C665.056 93.7463 655.867 98.7725 647.416 106.176C599.217 148.429 494.278 221.824 402.743 250.828C364.38 263.49 322.034 290.774 286.571 325.687C252.861 358.877 231.713 392.661 230.006 416.055C228.948 430.8 225.773 449.396 221.754 472.94C212.921 524.693 200.824 595.578 198.709 694.581C197.48 726.69 211.551 748.042 240.53 758.059C270.003 768.248 313.912 766.765 371.043 753.647C421.364 742.094 480.32 721.691 541.518 694.643C598.395 669.504 655.136 639.402 701.293 609.876C749.257 579.193 783.321 551.005 799.796 528.35C818.998 502.336 831.984 475.861 839.497 447.414C846.243 421.881 848.409 395.283 846.116 366.1C841.685 309.682 820.631 251.257 802.052 199.717C781.634 142.689 745.321 101.141 707.28 91.2917C696.072 88.3886 685.12 88.3701 674.732 91.1536L674.737 91.1522Z" fill="white"/>
<path d="M396.177 721.956C391.005 723.342 385.931 724.632 380.937 725.826C329.369 738.162 289.697 739.906 263.019 731.01C236.92 722.305 224.068 703.489 224.817 675.086C224.536 588.168 234.235 520.534 241.318 471.152C244.37 449.871 247.005 431.495 247.953 417.211C249.531 393.915 268.691 361.511 299.197 330.539C331.013 298.24 369.979 272.56 406.105 260.092C442.239 248.369 485.002 227.881 529.786 200.838C565.732 179.133 601.523 154.069 627.99 132.073C644.304 118.534 663.494 114.255 683.483 119.709C718.355 129.219 751.497 167.118 769.981 218.62C789.578 272.622 806.099 321.259 809.807 369.582C811.848 396.172 809.859 420.447 803.732 443.789C796.912 469.763 785.173 493.947 767.845 517.716C752.853 538.774 721.99 564.874 678.593 593.192C637.076 620.281 585.913 647.988 534.524 671.208C485.524 693.346 438.051 710.752 396.171 721.974L396.177 721.956ZM652.328 120.568C644.021 122.794 636.117 126.964 628.794 133.041C602.284 155.075 566.434 180.182 530.438 201.916C485.571 229.007 442.718 249.541 406.505 261.286C370.57 273.691 331.781 299.255 300.101 331.422C269.8 362.184 250.774 394.291 249.218 417.293C248.267 431.626 245.627 450.025 242.571 471.328C235.493 520.671 225.801 588.251 226.084 675.098C225.35 702.9 237.91 721.304 263.422 729.809C289.878 738.632 329.317 736.875 380.65 724.597C426.005 713.74 479.037 694.882 534.014 670.039C585.345 646.845 636.449 619.175 677.911 592.117C721.177 563.888 751.919 537.9 766.826 516.96C784.066 493.317 795.735 469.273 802.516 443.454C808.606 420.25 810.583 396.112 808.555 369.667C804.858 321.506 788.366 272.957 768.802 219.037C750.452 167.915 717.636 130.318 683.156 120.916C672.548 118.023 662.162 117.928 652.337 120.56L652.328 120.568Z" fill="white"/>
<path d="M398.145 694.739C395.572 695.429 393.028 696.089 390.504 696.723C344.751 708.225 309.565 710.244 285.921 702.72C263.334 695.532 252.01 679.691 252.273 655.629C249.477 579.748 256.949 514.517 262.405 466.888C264.568 448.004 266.44 431.692 267.243 418.466C268.698 395.224 285.294 365.298 312.771 336.358C340.826 306.81 376.217 282.861 409.879 270.653C477.07 248.231 560.429 197.052 609.452 158.991C624.221 147.55 641.479 144.248 659.36 149.44C690.616 158.517 720.223 192.438 736.623 237.974C753.459 283.984 768.841 328.945 772.136 373.157C773.913 396.993 772.116 418.796 766.647 439.797C760.57 463.131 750.15 484.867 734.798 506.257C721.382 525.592 693.84 549.491 655.159 575.357C618.336 599.978 572.812 625.257 526.975 646.536C481.193 667.785 436.85 684.369 398.146 694.744L398.145 694.739ZM629.858 149.952C622.949 151.803 616.34 155.131 610.172 159.907C561.074 198.025 477.573 249.29 410.269 271.748C376.787 283.891 341.559 307.733 313.625 337.158C286.332 365.905 269.856 395.564 268.419 418.534C267.612 431.789 265.74 448.116 263.576 467.017C258.12 514.608 250.656 579.789 253.448 655.612C253.193 679.129 264.239 694.591 286.284 701.605C309.718 709.063 344.689 707.037 390.226 695.587C430.608 685.423 477.731 668.105 526.486 645.468C572.266 624.214 617.735 598.971 654.512 574.378C693.077 548.592 720.509 524.803 733.848 505.578C749.125 484.305 759.482 462.692 765.522 439.502C770.961 418.626 772.744 396.949 770.98 373.243C767.697 329.177 752.338 284.3 735.535 238.372C719.26 193.181 689.956 159.536 659.048 150.563C649.005 147.647 639.163 147.469 629.865 149.961L629.858 149.952Z" fill="white"/>
<path d="M400.341 667.595L400.057 667.671C360.121 678.345 329.42 680.639 308.814 674.492C289.733 668.805 279.951 655.91 279.74 636.169C274.079 570.027 279.58 505.403 283.598 458.219C284.856 443.442 285.945 430.682 286.552 419.709C287.86 396.854 302.372 368.59 326.357 342.169C350.688 315.367 382.514 293.14 413.67 281.199C442.622 271.203 475.775 255.763 512.232 235.312C539.654 219.926 568.336 201.916 590.93 185.894C604.163 176.544 619.502 174.219 635.303 179.175C662.932 187.837 688.977 217.782 703.275 257.325C717.488 295.755 731.599 336.632 734.475 376.734C735.986 397.822 734.382 417.143 729.569 435.815C724.235 456.503 715.136 475.801 701.753 494.802C678.28 529.727 604.995 580.813 519.405 621.912C476.923 642.315 435.76 658.104 400.341 667.595ZM607.283 179.289C601.793 180.761 596.515 183.262 591.545 186.774C568.923 202.814 540.201 220.851 512.75 236.25C476.242 256.73 443.026 272.193 414.031 282.206C383.044 294.085 351.371 316.202 327.148 342.889C303.324 369.134 288.917 397.157 287.619 419.77C287.01 430.754 285.923 443.524 284.662 458.307C280.645 505.454 275.15 570.022 280.808 636.112C281.016 655.368 290.541 667.917 309.118 673.456C329.532 679.542 360.035 677.249 399.777 666.627L400.061 666.55C435.415 657.077 476.51 641.311 518.935 620.935C604.369 579.909 677.475 528.972 700.861 494.183C714.174 475.28 723.22 456.098 728.524 435.535C733.305 416.983 734.9 397.772 733.4 376.804C730.535 336.842 716.446 296.05 702.262 257.687C688.073 218.451 662.292 188.755 634.978 180.195C625.456 177.208 616.097 176.922 607.292 179.282L607.283 179.289Z" fill="white"/>
<path d="M402.696 640.626C371.915 648.874 348.043 650.809 331.672 646.374C316.105 642.155 307.872 632.192 307.196 616.749C297.826 559.101 301.762 491.725 304.637 442.523C305.086 434.802 305.512 427.513 305.843 420.963C307.028 398.13 319.135 372.216 339.93 347.987C360.903 323.562 388.43 303.591 417.443 291.755C437.735 284.441 493.416 262.128 572.397 212.81C584.11 205.535 597.562 204.191 611.301 208.937C635.263 217.212 657.722 243.172 669.912 276.68C681.638 307.961 694.354 344.346 696.8 380.315C699.39 418.331 690.196 452.031 668.697 483.351C658.42 499.27 637.514 518.785 608.255 539.78C580.387 559.773 547.04 579.684 511.818 597.357C475.443 615.606 440.091 629.908 409.582 638.712C407.25 639.385 404.951 640.022 402.691 640.628L402.696 640.626ZM584.572 208.551C580.54 209.632 576.637 211.333 572.918 213.641C560.282 221.531 534.513 237.194 503.906 253.417C471.773 270.454 442.807 283.658 417.8 292.667C388.945 304.439 361.551 324.311 340.682 348.623C320.029 372.685 308.005 398.391 306.831 421.008C306.5 427.557 306.075 434.851 305.627 442.577C302.754 491.742 298.82 559.069 308.18 616.619L308.185 616.676C308.828 631.658 316.818 641.329 331.935 645.424C349.088 650.07 375.848 647.425 409.318 637.764C439.772 628.975 475.062 614.701 511.384 596.477C546.559 578.827 579.866 558.943 607.695 538.981C636.856 518.06 657.669 498.635 667.891 482.81C689.268 451.672 698.402 418.169 695.833 380.388C693.395 344.55 680.706 308.243 669.003 277.03C656.909 243.784 634.683 218.055 610.991 209.873C601.914 206.735 592.961 206.314 584.584 208.559L584.572 208.551Z" fill="white"/>
<path d="M406.064 613.717C384.209 619.573 366.551 621.207 354.513 618.431C342.424 615.642 335.746 608.54 334.66 597.317C319.547 547.348 323.468 459.663 325.137 422.212C327.308 375.421 366.82 326.114 421.221 302.31C465.07 285.635 515.089 259.77 544.975 244.321C548.147 242.682 551.128 241.143 553.879 239.723C564.102 234.494 575.712 234.161 587.435 238.749C607.68 246.671 626.499 268.622 636.555 296.039C647.154 323.79 657.223 353.64 659.132 383.901C661.169 416.19 653.49 444.974 635.648 471.903C618.516 499.867 566.934 539.509 504.237 572.886C474.09 588.933 444.655 601.724 419.115 609.879C414.618 611.313 410.262 612.597 406.061 613.723L406.064 613.717ZM561.618 237.687C559.104 238.36 556.658 239.304 554.283 240.516C551.531 241.93 548.555 243.468 545.384 245.112C515.485 260.57 465.439 286.453 421.56 303.136C367.474 326.802 328.185 375.788 326.029 422.255C324.355 459.67 320.439 547.29 335.526 597.106L335.549 597.191C336.578 608.018 343.024 614.873 354.714 617.567C368.912 620.841 391.092 617.888 418.851 609.033C444.342 600.896 473.73 588.129 503.825 572.106C566.386 538.798 617.836 499.282 634.903 471.431C674.523 411.636 657.034 352.16 635.729 296.362C625.754 269.168 607.128 247.416 587.115 239.586C578.36 236.159 569.684 235.536 561.626 237.695L561.618 237.687Z" fill="white"/>
<path d="M409.979 587.273C396.62 590.853 385.482 592.132 377.406 590.82C368.709 589.403 363.571 585.061 362.136 577.913C354.16 565.349 348.695 541.745 345.882 507.755C343.834 482.989 343.306 452.268 344.438 423.463C346.323 377.239 376.441 335.897 425.005 312.868C442.298 305.809 460.199 298.097 477.513 290.638C499.905 280.992 521.056 271.886 535.365 266.634C547.424 262.262 561.217 265.219 574.202 274.954C586.512 284.182 597.076 298.92 603.202 315.391C617.911 352.905 620.688 373.621 621.467 387.479C622.958 414.03 616.786 437.901 602.603 460.448C588.56 485.069 548.002 518.825 496.755 548.527C464.02 567.5 433.544 580.965 409.981 587.278L409.979 587.273ZM538.257 266.558C537.376 266.794 536.506 267.069 535.64 267.381C521.35 272.623 500.214 281.725 477.831 291.368C460.513 298.828 442.605 306.537 425.327 313.592C377.056 336.483 347.105 377.568 345.235 423.489C344.106 452.267 344.63 482.952 346.675 507.686C349.478 541.604 354.924 565.112 362.849 577.546L362.887 577.611L362.906 577.68C364.246 584.512 369.163 588.669 377.532 590.035C399.679 593.648 445.21 577.476 496.351 547.835C547.483 518.202 587.933 484.56 601.917 460.04C616.019 437.627 622.148 413.911 620.669 387.527C619.195 361.26 610.162 335.333 602.453 315.683C596.383 299.34 585.912 284.731 573.722 275.594C561.893 266.727 549.408 263.575 538.259 266.563L538.257 266.558Z" fill="white"/>
<path d="M415.024 561.722C409.499 563.202 404.7 563.95 400.806 563.89C395.11 563.796 391.36 562.007 389.665 558.565C377.596 553.542 371.246 527.216 368.042 505.98C364.43 482.028 362.82 451.65 363.731 424.706C364.544 401.52 370.078 382.137 380.655 365.444C391.457 348.397 407.198 334.654 428.781 323.418C462.012 308.448 496.583 296.727 516.869 293.552C526.757 292.048 537.77 295.76 547.878 303.995C557.331 311.702 565.338 322.909 569.839 334.747C582.516 365.795 593.939 406.832 569.551 448.99C558.693 470.108 528.896 498.193 489.855 524.091C461.323 543.021 433.933 556.655 415.019 561.723L415.024 561.722ZM499.676 298.057C479.846 303.371 454.09 312.788 429.094 324.048C407.641 335.212 391.991 348.878 381.256 365.816C370.746 382.4 365.245 401.667 364.44 424.724C362.728 475.08 369.548 549.707 390.057 557.959L390.183 558.01L390.242 558.133C391.783 561.393 395.342 563.089 400.818 563.178C417.921 563.456 452.718 547.88 489.471 523.496C528.417 497.661 558.13 469.678 568.94 448.642C593.183 406.737 581.807 365.894 569.19 334.995L569.188 334.985C564.728 323.259 556.796 312.154 547.433 304.525C537.481 296.413 526.665 292.761 516.976 294.232C511.995 295.012 506.149 296.312 499.674 298.047L499.676 298.057Z" fill="white"/>
<path d="M423.1 538.604C420.716 539.243 418.778 539.437 417.37 539.137C413.547 540.78 409.888 540.444 406.495 538.155C396.565 531.455 390.865 509.646 387.829 492.523C384.217 472.153 382.43 447.265 383.039 425.945C383.741 401.829 387.198 384.964 394.248 371.258C401.765 356.643 413.948 344.791 432.578 333.962C454.154 322.723 479.992 317.431 498.407 320.476C514.934 323.281 530.752 339.767 536.493 354.087C549.35 383.413 549.355 411.487 536.517 437.517C531.959 447.981 523.667 459.841 511.886 472.757C501.684 483.939 489.123 495.578 475.547 506.412C454.298 523.374 434.038 535.663 423.103 538.593L423.1 538.604ZM417.307 538.504L417.403 538.526C418.757 538.84 420.639 538.656 422.963 538.033C447.034 531.583 518.302 477.786 535.955 437.273C548.718 411.396 548.706 383.5 535.921 354.341L535.919 354.331C530.24 340.165 514.613 323.857 498.294 321.087C480.001 318.062 454.312 323.331 432.857 334.506C414.342 345.266 402.238 357.033 394.773 371.544C387.769 385.163 384.333 401.947 383.632 425.967C383.023 447.249 384.813 472.089 388.416 492.424C391.431 509.43 397.072 531.08 406.821 537.657C410.057 539.839 413.552 540.139 417.205 538.542L417.295 538.502L417.307 538.504Z" fill="white"/>
<path d="M435.111 526.207C432.727 526.846 430.402 526.712 428.149 525.791C422.503 523.492 414.471 515 408.255 487.62C404.089 469.264 401.873 446.681 402.326 427.205C402.859 404.19 403.497 389.328 407.818 377.104C412.288 364.457 420.551 355.02 436.351 344.54C445.057 338.763 454.337 337.103 463.927 339.603C484.663 345.016 500.349 368.041 503.121 373.449C508.299 383.554 509.721 395.95 507.345 410.297C505.298 422.647 500.45 436.467 492.93 451.387C479.338 478.349 459.225 504.271 444.938 519.539C441.574 523.132 438.288 525.361 435.112 526.212L435.111 526.207ZM447.29 340.052C443.657 341.025 440.104 342.66 436.635 344.964C420.941 355.38 412.731 364.738 408.301 377.274C404.01 389.431 403.371 404.25 402.841 427.217C402.016 462.725 410.621 518.094 428.343 525.318C433.374 527.37 438.828 525.307 444.556 519.188C458.819 503.948 478.896 478.073 492.462 451.155C499.958 436.284 504.792 422.511 506.826 410.212C509.184 395.977 507.78 383.688 502.657 373.686C499.906 368.32 484.34 345.465 463.789 340.103C458.162 338.637 452.642 338.623 447.282 340.06L447.29 340.052Z" fill="white"/>
</g>
</svg>
